<svg width="135" height="34" viewBox="0 0 135 34" fill="none" xmlns="http://www.w3.org/2000/svg">
<path d="M43.5915 13.2779C43.5915 10.8561 41.2365 8.28405 37.1613 8.28405C32.585 8.28405 27.5578 11.6411 26.7895 18.3385C26.0046 25.1027 30.2134 28.109 34.4556 28.109C38.6979 28.109 40.9192 26.4555 43.1906 24.2509C41.2365 21.7957 38.7146 22.9314 38.2302 23.182C37.6958 23.4492 37.011 23.8166 35.608 23.8166C33.9713 23.8166 32.3011 23.0818 32.3011 20.0253C42.7898 18.9898 43.5915 15.6996 43.5915 13.2779ZM38.3972 13.6787C38.3304 14.4303 38.0298 15.7163 32.7186 16.4345C33.8377 12.4595 35.9755 12.1588 36.9609 12.1588C37.8795 12.1588 38.464 12.877 38.3972 13.6787ZM20.6266 14.3301C20.6266 14.3301 18.3719 21.4116 18.1882 21.9961C18.1214 21.3949 16.4679 8.68489 16.4679 8.68489C12.6265 8.68489 10.5722 11.424 9.48657 14.3134C9.48657 14.3134 6.74749 21.4116 6.51367 22.0129C6.49696 21.4617 6.09612 14.3969 6.09612 14.3969C5.8623 10.8561 2.62217 8.70159 0 8.70159L3.17332 27.9587C7.19844 27.942 9.36966 25.2196 10.5054 22.3302C10.5054 22.3302 12.9271 16.067 13.0273 15.7831C13.044 16.0503 14.7643 27.9587 14.7643 27.9587C18.8061 27.9587 20.9773 25.4033 22.1465 22.6141L27.8083 8.70159C23.8166 8.70159 21.7122 11.424 20.6266 14.3301ZM58.4226 8.25064C55.934 8.25064 54.03 9.60348 52.4267 11.591V11.5743L53.863 0C50.5561 0 47.8671 2.87269 47.3493 7.14833L44.8441 27.8083C46.7481 27.8083 48.769 27.2572 49.8546 25.8542C50.8233 27.1069 52.2763 28.109 54.4309 28.109C60.0092 28.109 63.8339 21.6287 63.8339 15.5493C63.8005 10.0043 61.1115 8.25064 58.4226 8.25064ZM57.9048 18.1882C57.3203 21.5786 55.433 23.8834 53.6125 23.8834C51.7753 23.8834 50.9903 23.0651 50.9903 23.0651C51.341 20.0922 51.5582 18.2717 52.2262 16.7017C52.8943 15.1317 54.481 12.6265 56.1344 12.6265C57.7545 12.6265 58.4894 14.781 57.9048 18.1882ZM77.7631 8.70159H73.8716L73.8883 8.50117C74.1556 5.96251 74.7568 4.62637 76.7443 4.40925C78.0972 4.27564 78.6984 3.57417 78.8488 2.80589C78.9657 2.20463 79.3331 0.116912 79.3331 0.116912C71.5167 0.0668068 69.0616 3.44055 68.4269 8.58468L68.4102 8.70159H68.3267C67.0574 8.70159 65.6544 10.1379 65.4206 11.9584L65.3371 12.6265H67.9425L65.7546 30.6977L65.0866 33.9379C65.1701 33.9379 65.2703 33.9546 65.3538 33.9546C69.0114 33.821 71.3497 30.9316 71.8674 26.7394L73.571 12.6265H74.7902C75.9928 12.6265 77.3957 11.424 77.6462 9.41976L77.7631 8.70159ZM98.0056 8.36755C93.5129 8.36755 89.2706 11.6745 87.9679 16.8687C86.6652 22.063 88.636 28.2092 95.2498 28.2092C101.847 28.2092 105.655 21.8124 105.655 16.4846C105.655 11.1901 102.064 8.36755 98.0056 8.36755ZM99.8261 18.0211C99.5923 20.3761 98.5568 23.9502 95.7175 23.9502C92.8615 23.9502 93.2623 19.7748 93.5463 17.7873C93.8469 15.6662 95.0327 12.6432 97.5881 12.6432C99.8762 12.6432 100.093 15.3656 99.8261 18.0211ZM127.852 14.3301C127.852 14.3301 125.597 21.4116 125.413 21.9961C125.346 21.3949 123.693 8.68489 123.693 8.68489C119.851 8.68489 117.797 11.424 116.712 14.3134C116.712 14.3134 113.972 21.4116 113.739 22.0129C113.722 21.4617 113.321 14.3969 113.321 14.3969C113.087 10.8561 109.847 8.70159 107.225 8.70159L110.382 27.9587C114.407 27.942 116.578 25.2196 117.714 22.3302C117.714 22.3302 120.135 16.067 120.219 15.7831C120.252 16.0503 121.956 27.9587 121.956 27.9587C125.998 27.9587 128.169 25.4033 129.338 22.6141L135 8.70159C131.025 8.70159 128.92 11.424 127.852 14.3301ZM81.4375 0.116912L78.164 26.5223L77.4959 29.7791C77.5794 29.7791 77.6796 29.7958 77.7631 29.7958C81.2872 29.7457 83.7925 26.6559 84.2601 22.7644L86.1474 7.61598C86.7153 2.98961 83.9595 0.116912 81.4375 0.116912Z" fill="#555555"/>
</svg>
