<svg width="12" height="12" viewBox="0 0 12 12" fill="none" xmlns="http://www.w3.org/2000/svg">
<path d="M0 1.32756C0 0.942753 0.135139 0.625293 0.405405 0.37518C0.675672 0.125056 1.02703 0 1.45946 0C1.88417 0 2.2278 0.123128 2.49035 0.369408C2.76061 0.623376 2.89575 0.954297 2.89575 1.36219C2.89575 1.7316 2.76448 2.03943 2.50193 2.28571C2.23166 2.53968 1.87645 2.66667 1.43629 2.66667H1.42471C0.999996 2.66667 0.656375 2.53968 0.393822 2.28571C0.13127 2.03175 0 1.71236 0 1.32756ZM0.150579 11.4286V3.71717H2.72201V11.4286H0.150579ZM4.14672 11.4286H6.71815V7.12265C6.71815 6.85328 6.74904 6.64549 6.81081 6.49928C6.91891 6.23761 7.08301 6.01634 7.30309 5.83549C7.52317 5.65463 7.79922 5.56421 8.13127 5.56421C8.99614 5.56421 9.42857 6.14526 9.42857 7.30736V11.4286H12V7.00721C12 5.8682 11.7297 5.00433 11.1892 4.41558C10.6486 3.82684 9.93437 3.53247 9.04633 3.53247C8.05019 3.53247 7.27413 3.95959 6.71815 4.81385V4.83694H6.70656L6.71815 4.81385V3.71717H4.14672C4.16216 3.96344 4.16988 4.72919 4.16988 6.01443C4.16988 7.29966 4.16216 9.10437 4.14672 11.4286Z" fill="#555555"/>
</svg>
