<svg width="63" height="60" viewBox="0 0 63 60" fill="none" xmlns="http://www.w3.org/2000/svg">
<path d="M37.1443 2.01524C40.2175 -2.06434 46.7104 0.516464 46.1444 5.59266L44.2296 22.7655C44.0169 24.673 44.9103 26.5349 46.5315 27.5625L60.1106 36.1699C64.7971 39.1406 61.9129 46.3967 56.4658 45.3394L40.6831 42.2758C38.7989 41.9101 36.8711 42.6506 35.7162 44.1836L25.3192 57.9849C22.2459 62.0645 15.7531 59.4837 16.3191 54.4075L18.2339 37.2347C18.4466 35.3271 17.5531 33.4652 15.932 32.4376L2.35287 23.8302C-2.33366 20.8596 0.550569 13.6034 5.99763 14.6608L21.7803 17.7243C23.6645 18.09 25.5924 17.3496 26.7473 15.8165L37.1443 2.01524Z" fill="#007E85"/>
</svg>
