<svg width="109" height="37" viewBox="0 0 109 37" fill="none" xmlns="http://www.w3.org/2000/svg">
<path d="M104.219 6.69298H99.4386V0H88.9412L84.1136 6.69298H75.5351L72.6667 9.56141V6.69298H65.9737V0H44.9386V6.69298H15.3461L10.5175 0H0V22.9474L13.386 36.3333H26.7719V32.5088L30.5965 36.3333H56.4123V32.5088L60.2369 36.3333H72.6667V32.5088L76.4913 36.3333H100.395L109 27.7281V11.4737L104.219 6.69298ZM16.2544 16.2544H9.56141V18.1667H16.2544V25.8158H5.73684L1.91228 21.9912V1.91228H9.56141V8.60527H16.2544V16.2544ZM44.9386 25.8158H21.9912L18.1667 21.9912V8.60527H25.8158V18.1667H27.7281V8.60527H35.3772V18.1667H37.2895V8.60527H44.9386V25.8158ZM54.5 25.8158H46.8509V8.60527H54.5V25.8158ZM54.5 6.69298H46.8509V1.91228H54.5V6.69298ZM70.7544 16.2544H64.0614V18.1667H70.7544V25.8158H60.2369L56.4123 21.9912V1.91228H64.0614V8.60527H70.7544V16.2544ZM87.9649 16.2544H80.3158V18.1667H87.9649V25.8158H76.4913L72.6667 21.9912V12.4298L76.4913 8.60527H87.9649V16.2544ZM107.088 25.8158H99.4386V16.2544H97.5264V25.8158H89.8772V1.91228H97.5264V8.60527H103.263L107.088 12.4298V25.8158Z" fill="#555555"/>
</svg>
