<svg width="126" height="29" viewBox="0 0 126 29" fill="none" xmlns="http://www.w3.org/2000/svg">
<path d="M21.0147 28.101L12.7578 27.9483C10.0844 27.8952 7.40431 28.0015 4.78338 27.4504C0.796148 26.6272 0.513692 22.5908 0.218098 19.2049C-0.189164 14.4448 -0.0315142 9.59845 0.737029 4.8782C1.17057 2.22929 2.87844 0.649233 5.51908 0.476622C14.4329 -0.147434 23.4058 -0.074406 32.2999 0.217705C33.2392 0.244261 34.1851 0.390316 35.1113 0.556288C39.6831 1.36623 39.7948 5.94043 40.0904 9.79098C40.386 13.6814 40.2612 17.5917 39.6963 21.4555C39.243 24.6555 38.3759 27.3376 34.7172 27.5965C30.1322 27.9351 25.6523 28.2073 21.0542 28.121C21.0542 28.101 21.0279 28.101 21.0147 28.101ZM16.1604 20.0016C19.6156 17.9966 23.0051 16.0249 26.4405 14.0332C22.9788 12.0283 19.5959 10.0565 16.1604 8.06487V20.0016Z" fill="#FF6161"/>
<path d="M106.319 24.4632C106.162 25.1138 106.024 25.625 105.886 26.1694H102.654V0.974534H106.424V10.2691C106.621 10.0168 106.72 9.91057 106.805 9.7977C107.449 8.90145 108.283 8.31722 109.361 8.09149C111.075 7.75291 112.54 8.51639 113.059 10.1828C113.394 11.2184 113.611 12.3271 113.637 13.4093C113.689 16.191 113.65 18.9661 113.551 21.7478C113.512 22.5976 113.256 23.4673 112.934 24.264C111.876 26.893 108.421 27.2913 106.707 25.0142C106.602 24.8748 106.503 24.7221 106.319 24.4632ZM106.503 17.5321V22.1395C106.503 22.8897 106.897 23.3478 107.64 23.5204C108.369 23.693 108.96 23.4076 109.255 22.7237C109.38 22.4383 109.505 22.1395 109.512 21.8408C109.584 19.0258 109.65 16.2109 109.669 13.3894C109.669 12.8649 109.545 12.3205 109.387 11.8093C109.091 10.8865 108.277 10.6143 107.475 11.1521C106.871 11.5637 106.503 12.1479 106.503 12.9247V17.5321ZM96.256 8.45H100.204V26.1826H97.123C97.0114 25.5121 96.8997 24.8217 96.7683 24.0117C96.5581 24.3237 96.4333 24.5229 96.3019 24.7221C95.2772 26.2158 93.8255 26.727 92.1111 26.4548C90.6463 26.2158 89.766 25.0739 89.569 23.2018C89.5099 22.6441 89.4836 22.0798 89.4836 21.5221C89.4705 17.3727 89.4836 13.2101 89.4836 9.06078V8.43672H93.4774V9.16036C93.4774 13.1703 93.4642 17.1736 93.4905 21.1835C93.4905 21.7545 93.5496 22.3453 93.6482 22.9163C93.7598 23.5005 94.1802 23.713 94.7451 23.6731C95.6582 23.6001 96.2888 22.9163 96.2888 22.0001V9.23339C96.256 8.97447 96.256 8.73547 96.256 8.45ZM69.0745 8.43672H73.042V9.18692C73.042 13.1769 73.0289 17.1603 73.0552 21.137C73.0552 21.708 73.1077 22.2989 73.226 22.8565C73.377 23.5138 73.758 23.7262 74.4083 23.6399C75.3083 23.5138 75.8535 22.8831 75.86 21.9603V9.25995V8.46327H79.8078V26.1826H76.7402C76.6286 25.5254 76.5169 24.8482 76.3724 23.9918C76.1753 24.2905 76.0637 24.4632 75.952 24.6424C74.9273 26.1627 73.4887 26.7204 71.7349 26.4482C70.3292 26.2358 69.4687 25.1868 69.2059 23.4673C69.1336 22.9296 69.0811 22.3984 69.0811 21.8607C69.068 17.552 69.068 13.2234 69.068 8.91472L69.0745 8.43672ZM67.0382 17.9039C67.0251 18.5014 66.9857 19.0989 66.9528 19.6964C66.8017 21.4889 66.7295 24.0316 65.2975 25.3395C64.3844 26.1627 63.2283 26.4615 62.0328 26.5013C61.5008 26.5146 60.9621 26.5146 60.4301 26.4416C57.9142 26.0565 56.745 24.9345 56.3246 22.1395C55.8451 18.913 55.8057 15.6333 56.3772 12.4068C56.9683 9.06742 59.0047 7.88568 62.1708 8.10477C65.1267 8.31722 66.447 10.2757 66.7952 13.0641C66.9857 14.6641 67.0776 16.284 67.0382 17.9039ZM63.0181 17.2931C63.0181 16.1578 63.0444 15.0159 63.005 13.8807C62.9787 13.2234 62.8933 12.5595 62.7554 11.9089C62.5977 11.1587 62.1248 10.8002 61.5336 10.8135C60.9556 10.8267 60.5483 11.1852 60.3381 11.8823C60.2658 12.1413 60.187 12.4068 60.187 12.6657C60.187 14.445 60.1739 16.2308 60.1607 18.0101C60.1476 19.6698 59.9374 21.4092 60.4563 22.9959C60.614 23.4806 61.0213 23.7461 61.5533 23.7461C62.0722 23.7461 62.4138 23.4872 62.6043 23.0225C62.7554 22.664 62.8868 22.2723 62.8868 21.8872C62.9328 20.3603 63.0181 18.8267 63.0181 17.2931ZM50.531 13.9537C50.8791 12.2342 51.2076 10.5545 51.5688 8.86825C52.0221 6.72387 52.5279 4.57949 52.9746 2.42846C53.0862 1.90399 53.2964 1.77785 53.7891 1.79112C54.8466 1.83096 55.9239 1.8044 57.0537 1.8044C56.6859 3.17203 56.3246 4.47326 55.9699 5.75458C54.8466 9.77779 53.7234 13.8143 52.6133 17.8508C52.5279 18.1628 52.4885 18.5014 52.4885 18.8333C52.4753 21.0375 52.4885 23.2349 52.4885 25.4391V26.1561H48.6326C48.6195 25.9569 48.5932 25.7577 48.5932 25.5586C48.5932 24.3105 48.4947 23.0557 48.6063 21.8208C48.8888 18.8532 47.956 16.1246 47.2006 13.3628C46.2022 9.7114 45.1906 6.04669 44.1921 2.39527C44.1396 2.22266 44.1199 2.03677 44.0673 1.82432H48.002C48.8297 5.85417 49.6639 9.88401 50.531 13.9537ZM125.973 18.581H119.325C119.398 19.9287 119.424 21.2101 119.562 22.4781C119.66 23.3611 120.14 23.7395 120.895 23.7461C121.684 23.7594 122.143 23.3611 122.327 22.4847C122.386 22.1993 122.426 21.9138 122.452 21.6217C122.478 21.3628 122.491 21.0839 122.511 20.7121C123.634 20.7719 124.731 20.8383 125.815 20.8848C126.446 22.7769 125.309 25.2067 123.398 25.9569C121.894 26.5544 120.35 26.5544 118.813 26.0963C117.677 25.7578 116.829 25.0275 116.448 23.9055C116.094 22.8565 115.759 21.7611 115.686 20.6657C115.489 17.9636 115.417 15.235 115.824 12.5263C115.896 12.0749 116.021 11.6433 116.159 11.2052C116.711 9.39937 117.913 8.29066 119.772 8.10477C120.784 8.00519 121.828 8.04502 122.826 8.21763C124.442 8.50311 125.303 9.6782 125.677 11.2184C125.848 11.9421 125.973 12.6856 125.999 13.4226C126.006 15.1155 125.973 16.7952 125.973 18.581ZM122.196 16.2508C122.196 14.9163 122.209 13.6616 122.183 12.4002C122.183 12.1014 122.071 11.7894 121.959 11.5039C121.736 10.9462 121.27 10.7935 120.711 10.7935C120.153 10.7935 119.798 11.079 119.66 11.5902C119.24 13.1238 119.378 14.6906 119.391 16.264C120.396 16.2508 121.309 16.2508 122.196 16.2508Z" fill="#555555"/>
<path d="M82.8554 5.05765H78.947V1.85767H90.613V5.03774H86.7309V26.1563H82.8619L82.8554 5.05765Z" fill="#555555"/>
</svg>
