<svg width="12" height="12" viewBox="0 0 12 12" fill="none" xmlns="http://www.w3.org/2000/svg">
<path fill-rule="evenodd" clip-rule="evenodd" d="M0 6C0 3.60324 0 2.40486 0.571128 1.5417C0.826164 1.15626 1.15626 0.826164 1.5417 0.571128C2.40486 0 3.60324 0 6 0C8.39676 0 9.59514 0 10.4583 0.571128C10.8437 0.826164 11.1738 1.15626 11.4289 1.5417C12 2.40486 12 3.60324 12 6C12 8.39676 12 9.59514 11.4289 10.4583C11.1738 10.8437 10.8437 11.1738 10.4583 11.4289C9.59514 12 8.39676 12 6 12C3.60324 12 2.40486 12 1.5417 11.4289C1.15626 11.1738 0.826164 10.8437 0.571128 10.4583C0 9.59514 0 8.39676 0 6ZM9.10618 6.00093C9.10618 7.71647 7.71546 9.1072 5.99991 9.1072C4.28436 9.1072 2.89364 7.71647 2.89364 6.00093C2.89364 4.28538 4.28436 2.89465 5.99991 2.89465C7.71546 2.89465 9.10618 4.28538 9.10618 6.00093ZM5.99991 8.05626C7.13504 8.05626 8.05525 7.13606 8.05525 6.00093C8.05525 4.8658 7.13504 3.94559 5.99991 3.94559C4.86478 3.94559 3.94458 4.8658 3.94458 6.00093C3.94458 7.13606 4.86478 8.05626 5.99991 8.05626ZM9.22885 3.4677C9.63195 3.4677 9.95873 3.14092 9.95873 2.73782C9.95873 2.33471 9.63195 2.00793 9.22885 2.00793C8.82575 2.00793 8.49897 2.33471 8.49897 2.73782C8.49897 3.14092 8.82575 3.4677 9.22885 3.4677Z" fill="#555555"/>
</svg>
