<svg width="63" height="60" viewBox="0 0 63 60" fill="none" xmlns="http://www.w3.org/2000/svg">
<path d="M37.1444 2.015C40.2177 -2.0646 46.7106 0.516221 46.1446 5.59243L44.2298 22.7653C44.0171 24.6729 44.9105 26.5348 46.5317 27.5624L60.1108 36.1698C64.7974 39.1405 61.9131 46.3966 56.4661 45.3393L40.6833 42.2758C38.7991 41.91 36.8712 42.6505 35.7163 44.1836L25.3193 57.9849C22.246 62.0645 15.7531 59.4837 16.3191 54.4075L18.2339 37.2346C18.4466 35.327 17.5532 33.4651 15.9321 32.4375L2.35288 23.8301C-2.33367 20.8594 0.550571 13.6033 5.99765 14.6606L21.7804 17.7241C23.6646 18.0899 25.5925 17.3494 26.7474 15.8163L37.1444 2.015Z" fill="#007E85"/>
</svg>
