<svg width="137" height="27" viewBox="0 0 137 27" fill="none" xmlns="http://www.w3.org/2000/svg">
<path d="M8.67895 26.386H3.51665V13.3795H0V9.14486H3.51652V6.13161C3.51652 2.56089 5.07188 0 10.2202 0C11.3091 0 13.0186 0.22182 13.0186 0.22182V4.15392H11.223C9.39354 4.15392 8.67922 4.71637 8.67922 6.27132V9.14486H12.9501L12.5697 13.3795H8.67909L8.67895 26.386ZM20.524 8.80646C20.4488 8.80646 20.3713 8.80923 20.2948 8.81117C15.508 8.81117 13.3179 12.4503 13.3179 17.6161C13.3179 24.1236 16.1587 26.7281 20.3322 26.7281C22.7199 26.7281 24.2887 25.7124 25.2422 23.8168V26.3878H30.1523V9.14666H25.2422V11.7981C24.4637 10.0922 22.851 8.82667 20.524 8.80646ZM21.7724 12.8805C23.7829 12.8805 24.9896 14.2978 24.9896 16.7086L24.9943 19.1709C24.9943 20.7958 23.9976 22.6968 21.7724 22.6968C18.3516 22.6968 18.4429 18.9635 18.4429 17.7201C18.4429 13.5375 20.2656 12.8805 21.7724 12.8805ZM32.1353 17.7681C32.1353 15.673 32.0361 8.81767 40.8731 8.81767C44.4205 8.81767 45.9017 9.95765 45.9017 9.95765L44.7112 13.6897C44.7112 13.6897 43.2319 12.8664 41.3043 12.8664C38.8354 12.8664 37.26 14.3129 37.26 16.858L37.2628 18.683C37.2628 21.1285 38.7828 22.761 41.3093 22.761C43.0654 22.761 44.6839 21.93 44.6839 21.93L45.8714 25.584C45.8714 25.584 44.517 26.7312 40.8979 26.7312C32.4837 26.7312 32.1354 20.5806 32.1354 17.7681H32.1353ZM74.6913 8.81117C79.4782 8.81117 81.7028 12.4503 81.7028 17.6161C81.7028 24.1236 78.8618 26.7281 74.6884 26.7281C72.3006 26.7281 70.5355 25.7125 69.582 23.8168V26.3878L64.7337 26.3859V0.524225L69.8814 0.0704782V11.5645C70.6243 9.55361 73.0659 8.81117 74.6914 8.81117H74.6913ZM73.2481 12.8805C71.2377 12.8805 69.8814 14.2978 69.8814 16.7086L69.8766 19.1709C69.8736 20.7958 70.8158 22.6968 73.2481 22.6968C76.669 22.6968 76.5776 18.9635 76.5776 17.7201C76.5776 13.5375 74.7551 12.8805 73.2481 12.8805ZM54.8333 8.82543C49.404 8.82543 46.5377 11.8172 46.5377 17.134V18.1218C46.5377 25.0224 50.5629 26.799 55.3617 26.799C60.0261 26.799 62.1374 25.4804 62.1374 25.4804L61.1742 21.969C61.1742 21.969 58.6907 23.037 55.9789 23.037C53.1676 23.037 51.9586 22.3128 51.6487 19.5823H62.549V16.7652C62.549 10.9979 59.3321 8.82529 54.8331 8.82529L54.8333 8.82543ZM54.9641 12.3416C56.8435 12.3416 58.0613 13.5063 57.9944 16.2076H51.6582C51.768 13.3646 53.0813 12.3417 54.9641 12.3417V12.3416ZM91.967 8.80175C86.3915 8.80175 83.4563 11.9773 83.4563 17.668C83.4563 25.476 88.516 26.7329 91.9763 26.7329C97.042 26.7329 100.412 23.9765 100.412 17.7389C100.412 11.2467 96.6228 8.80175 91.967 8.80175ZM91.8968 12.8946C94.3485 12.8946 95.3199 14.7491 95.3199 16.8599V18.6748C95.3199 21.232 93.9606 22.711 91.8875 22.711C89.9487 22.711 88.5861 21.3275 88.5861 18.6748V16.8599C88.5861 14.0308 90.2075 12.8946 91.8968 12.8946ZM110.667 8.80175C105.092 8.80175 102.157 11.9773 102.157 17.668C102.157 25.476 107.216 26.7329 110.677 26.7329C115.742 26.7329 119.112 23.9765 119.112 17.7389C119.112 11.2467 115.323 8.80175 110.667 8.80175ZM110.597 12.8946C113.049 12.8946 114.02 14.7491 114.02 16.8599V18.6748C114.02 21.232 112.661 22.711 110.588 22.711C108.649 22.711 107.286 21.3275 107.286 18.6748V16.8599C107.286 14.0308 108.908 12.8946 110.597 12.8946ZM121.058 26.386V0.524225L126.22 0.0704782V17.4047L131.342 9.14486H136.794L131.451 17.6996L137 26.386H131.532L126.22 17.9516V26.386H121.058Z" fill="#555555"/>
</svg>
