<svg width="70" height="70" viewBox="0 0 70 70" fill="none" xmlns="http://www.w3.org/2000/svg">
<g clip-path="url(#clip0_225_369)">
<path d="M46.6669 46.6665C53.1102 46.6665 58.3335 41.4432 58.3335 34.9999C58.3335 28.5566 53.1102 23.3333 46.6669 23.3333C40.2236 23.3333 35.0002 28.5566 35.0002 34.9999C35.0002 41.4432 40.2236 46.6665 46.6669 46.6665Z" fill="#19BCFE"/>
<path fill-rule="evenodd" clip-rule="evenodd" d="M23.3334 69.9998C26.4276 69.9998 29.395 68.7706 31.5829 66.5827C33.7709 64.3948 35 61.4273 35 58.3331V46.6665H23.3334C20.2392 46.6665 17.2717 47.8957 15.0838 50.0836C12.8959 52.2715 11.6667 55.239 11.6667 58.3331C11.6667 61.4273 12.8959 64.3948 15.0838 66.5827C17.2717 68.7706 20.2392 69.9998 23.3334 69.9998Z" fill="#09CF83"/>
<path fill-rule="evenodd" clip-rule="evenodd" d="M23.3334 46.6665H35V23.3333H23.3334C20.2392 23.3333 17.2717 24.5624 15.0838 26.7503C12.8959 28.9382 11.6667 31.9057 11.6667 34.9999C11.6667 38.0941 12.8959 41.0615 15.0838 43.2494C17.2717 45.4374 20.2392 46.6665 23.3334 46.6665Z" fill="#A259FF"/>
<path fill-rule="evenodd" clip-rule="evenodd" d="M23.3334 23.3333H35V0H23.3334C20.2392 0 17.2717 1.22916 15.0838 3.41708C12.8959 5.605 11.6667 8.57245 11.6667 11.6666C11.6667 14.7608 12.8959 17.7283 15.0838 19.9162C17.2717 22.1041 20.2392 23.3333 23.3334 23.3333Z" fill="#F24E1E"/>
<path fill-rule="evenodd" clip-rule="evenodd" d="M46.6669 23.3333H35.0002V0H46.6669C49.7611 0 52.7285 1.22916 54.9164 3.41708C57.1044 5.605 58.3335 8.57245 58.3335 11.6666C58.3335 14.7608 57.1044 17.7283 54.9164 19.9162C52.7285 22.1041 49.7611 23.3333 46.6669 23.3333Z" fill="#FF7262"/>
</g>
<defs>
<clipPath id="clip0_225_369">
<rect width="69.2308" height="69.2308" fill="white" transform="scale(1.01111)"/>
</clipPath>
</defs>
</svg>
