<svg width="12" height="10" viewBox="0 0 12 10" fill="none" xmlns="http://www.w3.org/2000/svg">
<path d="M8.01803 0.00216112V0H8.5807L8.78629 0.0410613C8.92336 0.0677187 9.04779 0.102653 9.1596 0.145876C9.27142 0.189098 9.37963 0.239528 9.48422 0.297154C9.58882 0.35478 9.68369 0.413498 9.76881 0.473285C9.85321 0.53236 9.92896 0.595032 9.99604 0.661303C10.0624 0.728298 10.1659 0.745587 10.3066 0.71317C10.4473 0.680753 10.5987 0.635726 10.761 0.5781C10.9234 0.520474 11.0839 0.45564 11.2426 0.383599C11.4013 0.311558 11.4979 0.265818 11.5326 0.246368C11.5665 0.226204 11.5845 0.215399 11.5867 0.213951L11.5888 0.210709L11.5996 0.205306L11.6105 0.199904L11.6213 0.194501L11.6321 0.189098L11.6343 0.185856L11.6375 0.183695L11.6408 0.181534L11.6429 0.178292L11.6537 0.175051L11.6646 0.17289L11.6624 0.189098L11.6592 0.205306L11.6537 0.221515L11.6483 0.237723L11.6429 0.248529L11.6375 0.259335L11.6321 0.275543C11.6285 0.286349 11.6249 0.300752 11.6213 0.318765C11.6177 0.336778 11.5834 0.408808 11.5185 0.534877C11.4536 0.660946 11.3724 0.788809 11.275 0.918476C11.1776 1.04814 11.0904 1.14611 11.0132 1.21239C10.9353 1.27938 10.8837 1.3262 10.8584 1.35286C10.8332 1.38023 10.8025 1.40544 10.7665 1.4285L10.7124 1.46416L10.7015 1.46956L10.6907 1.47496L10.6886 1.47821L10.6853 1.48037L10.6821 1.48253L10.6799 1.48577L10.6691 1.49117L10.6583 1.49658L10.6561 1.49982L10.6528 1.50198L10.6496 1.50414L10.6474 1.50738L10.6453 1.51062L10.642 1.51278L10.6388 1.51495L10.6366 1.51819H10.6907L10.9937 1.45335C11.1957 1.41013 11.3886 1.35791 11.5726 1.29667L11.8647 1.19942L11.8972 1.18862L11.9134 1.18321L11.9243 1.17781L11.9351 1.17241L11.9459 1.16701L11.9567 1.1616L11.9784 1.15836L12 1.1562V1.17781L11.9946 1.17997L11.9892 1.18321L11.987 1.18646L11.9838 1.18862L11.9805 1.19078L11.9784 1.19402L11.9762 1.19726L11.9729 1.19942L11.9697 1.20158L11.9675 1.20482L11.9654 1.20807L11.9621 1.21023L11.9567 1.22103L11.9513 1.23184L11.9481 1.234C11.9466 1.23616 11.9008 1.29739 11.8106 1.4177C11.7205 1.53872 11.6718 1.59994 11.6646 1.60139C11.6574 1.60355 11.6472 1.61436 11.6343 1.63381C11.622 1.65397 11.5455 1.7343 11.4049 1.87477C11.2642 2.01525 11.1264 2.14022 10.9915 2.24973C10.8559 2.35994 10.7874 2.49537 10.7859 2.65602C10.7838 2.81594 10.7755 2.99676 10.761 3.19846C10.7466 3.40017 10.7196 3.61807 10.6799 3.8522C10.6402 4.08632 10.5789 4.35106 10.4959 4.64641C10.413 4.94176 10.312 5.22991 10.193 5.51086C10.0739 5.7918 9.9495 6.04393 9.81966 6.26725C9.68981 6.49057 9.57078 6.67967 9.46258 6.83454C9.35437 6.98942 9.24437 7.1353 9.13255 7.27217C9.02074 7.40905 8.87936 7.56321 8.7084 7.73465C8.53671 7.90538 8.44294 7.99903 8.42706 8.0156C8.41047 8.03145 8.33978 8.09052 8.21497 8.19281C8.0909 8.29582 7.95744 8.39883 7.81461 8.50185C7.6725 8.60415 7.54193 8.68951 7.4229 8.75794C7.30388 8.82637 7.16033 8.90453 6.99225 8.99242C6.82489 9.08103 6.64382 9.16315 6.44905 9.23879C6.25428 9.31443 6.04869 9.38467 5.83228 9.4495C5.61587 9.51433 5.40668 9.56476 5.20469 9.60078C5.00271 9.63679 4.77367 9.66742 4.51758 9.69263L4.13345 9.73045V9.73585H3.43012V9.73045L3.33814 9.72504C3.27683 9.72145 3.22633 9.71784 3.18665 9.71424C3.14699 9.71064 2.99729 9.69082 2.7376 9.65481C2.47791 9.61879 2.27412 9.58277 2.12624 9.54675C1.97837 9.51074 1.75834 9.44229 1.46619 9.34144C1.17403 9.2406 0.924076 9.13866 0.716321 9.03565C0.509291 8.93335 0.379445 8.86852 0.326781 8.84115C0.274842 8.81449 0.216411 8.78136 0.151488 8.74173L0.0541028 8.6823L0.0519495 8.67906L0.0486925 8.6769L0.0454463 8.67474L0.0432822 8.6715L0.0324617 8.66609L0.0216411 8.66069L0.0194878 8.65745L0.0162308 8.65529L0.0129847 8.65313L0.0108206 8.64989L0.00866727 8.64664L0.00541028 8.64448H0V8.62287L0.0108206 8.62503L0.0216411 8.62827L0.0703336 8.63368C0.102795 8.63728 0.191167 8.64268 0.335437 8.64989C0.479719 8.65709 0.633003 8.65709 0.795311 8.64989C0.957619 8.64268 1.12354 8.62647 1.29306 8.60126C1.46258 8.57605 1.66276 8.53283 1.8936 8.47159C2.12444 8.41036 2.33653 8.3376 2.52986 8.25332C2.72246 8.16832 2.85952 8.10493 2.94104 8.06314C3.02183 8.02208 3.14518 7.94572 3.31109 7.83406L3.55996 7.66658L3.56213 7.66333L3.56537 7.66117L3.56863 7.65901L3.57078 7.65577L3.57295 7.65253L3.57619 7.65037L3.57945 7.64821L3.58161 7.64496L3.59243 7.64172L3.60325 7.63956L3.60541 7.62876L3.60866 7.61795L3.61191 7.61579L3.61407 7.61255L3.5275 7.60715C3.4698 7.60355 3.41389 7.59994 3.35978 7.59634C3.30568 7.59274 3.22092 7.57653 3.1055 7.54771C2.99009 7.5189 2.86565 7.47567 2.73219 7.41805C2.59874 7.36042 2.46889 7.29198 2.34265 7.21274C2.21642 7.1335 2.12516 7.06758 2.06889 7.015C2.01335 6.96312 1.94121 6.88965 1.85248 6.79456C1.76448 6.69876 1.68801 6.60042 1.62308 6.49957C1.55816 6.39872 1.49613 6.28237 1.43698 6.15055L1.34716 5.95389L1.34175 5.93768L1.33634 5.92147L1.33309 5.91067L1.33093 5.89986L1.34716 5.90202L1.36339 5.90526L1.48242 5.92147C1.56177 5.93228 1.68621 5.93587 1.85573 5.93228C2.02525 5.92868 2.14247 5.92147 2.20739 5.91067C2.27232 5.89986 2.312 5.89265 2.32642 5.88905L2.34806 5.88365L2.37511 5.87825L2.40216 5.87285L2.40433 5.8696L2.40757 5.86744L2.41083 5.86528L2.41298 5.86204L2.39134 5.85664L2.3697 5.85123L2.34806 5.84583L2.32642 5.84043L2.30478 5.83503C2.29036 5.83143 2.26511 5.82422 2.22904 5.81342C2.19297 5.80261 2.09559 5.76299 1.93688 5.69455C1.77819 5.62612 1.65194 5.55948 1.55816 5.49465C1.46415 5.42963 1.3745 5.35852 1.28981 5.28178C1.20541 5.20398 1.11272 5.10384 1.01172 4.98138C0.910734 4.85892 0.820566 4.71665 0.741208 4.55456C0.661861 4.39248 0.602348 4.2376 0.562669 4.08992C0.52315 3.94311 0.497077 3.79301 0.484772 3.64149L0.465284 3.41457L0.476105 3.41673L0.486925 3.41997L0.497746 3.42538L0.508566 3.43078L0.519387 3.43618L0.530207 3.44158L0.697926 3.51722C0.809746 3.56765 0.948606 3.61088 1.11452 3.64689C1.28044 3.68291 1.37962 3.70272 1.41208 3.70632L1.46078 3.71172H1.55816L1.55601 3.70848L1.55275 3.70632L1.5495 3.70416L1.54734 3.70092L1.54519 3.69768L1.54193 3.69552L1.53868 3.69336L1.53652 3.69011L1.5257 3.68471L1.51488 3.67931L1.51272 3.67607L1.50947 3.67391L1.50622 3.67174L1.50406 3.6685L1.49324 3.6631L1.48242 3.6577L1.48026 3.65446C1.4781 3.65301 1.44708 3.62996 1.3872 3.5853C1.32804 3.53992 1.26601 3.48121 1.20108 3.40917C1.13616 3.33713 1.07124 3.26149 1.00631 3.18225C0.941269 3.10283 0.883337 3.01786 0.833183 2.92832C0.782694 2.83828 0.729306 2.72373 0.673039 2.5847C0.617497 2.44639 0.575297 2.307 0.546438 2.16652C0.517591 2.02605 0.50136 1.88738 0.497746 1.75051C0.494142 1.61363 0.497746 1.49658 0.508566 1.39933C0.519387 1.30208 0.541028 1.19221 0.57349 1.06975C0.605951 0.947295 0.652848 0.817628 0.714157 0.680753L0.806132 0.475447L0.811542 0.459238L0.816952 0.44303L0.820209 0.440869L0.822362 0.437627L0.824527 0.434385L0.827773 0.432224L0.83103 0.434385L0.833183 0.437627L0.835347 0.440869L0.838593 0.44303L0.84185 0.445191L0.844004 0.448433L0.846168 0.451674L0.849414 0.453835L0.854824 0.464641L0.860234 0.475447L0.863491 0.477608L0.865645 0.480849L1.01172 0.642933C1.10911 0.750989 1.22453 0.871656 1.35798 1.00492C1.49144 1.13819 1.56538 1.20734 1.5798 1.21239C1.59424 1.21815 1.61226 1.23471 1.6339 1.26209C1.65555 1.28875 1.72769 1.35251 1.85032 1.45335C1.97296 1.5542 2.13346 1.67127 2.33183 1.80454C2.53021 1.9378 2.75023 2.06927 2.99188 2.19894C3.23355 2.32861 3.49324 2.44566 3.77096 2.55012C4.0487 2.65458 4.24347 2.72301 4.35528 2.75543C4.46709 2.78785 4.65825 2.82926 4.92876 2.87969C5.19928 2.93012 5.40307 2.96254 5.54013 2.97694C5.67719 2.99135 5.77097 2.99964 5.82146 3.0018L5.8972 3.00396L5.89505 2.98775L5.89179 2.97154L5.87015 2.83647C5.85573 2.74643 5.84851 2.62036 5.84851 2.45827C5.84851 2.29619 5.86114 2.14672 5.88638 2.00984C5.91164 1.87297 5.94951 1.7343 6 1.59383C6.0505 1.45335 6.09992 1.34061 6.14824 1.25561C6.1973 1.17133 6.2615 1.07516 6.34085 0.967102C6.42021 0.859046 6.523 0.747391 6.64923 0.632128C6.77548 0.516864 6.91975 0.414211 7.08206 0.324168C7.24436 0.234125 7.39406 0.165682 7.53111 0.118862C7.66817 0.072041 7.7836 0.0414179 7.87737 0.027014C7.97115 0.0126101 8.01803 0.00432224 8.01803 0.00216112Z" fill="#555555"/>
</svg>
