<svg width="14" height="10" viewBox="0 0 14 10" fill="none" xmlns="http://www.w3.org/2000/svg">
<path d="M7.31005 9.88344L4.43784 9.82976C3.50788 9.81105 2.5756 9.84839 1.66388 9.6546C0.276936 9.36505 0.178679 7.94535 0.0758649 6.75448C-0.0658032 5.08028 -0.0109592 3.37568 0.256387 1.71545C0.407312 0.78389 1.00127 0.228019 1.91979 0.16753C5.0205 -0.0519946 8.14183 -0.0259786 11.2357 0.0764375C11.5624 0.0858262 11.8914 0.137142 12.2136 0.195553C13.804 0.48044 13.8428 2.08928 13.9459 3.44363C14.0487 4.81195 14.0053 6.18729 13.8088 7.54629C13.6511 8.67151 13.3495 9.61511 12.0765 9.7062C10.4815 9.82532 8.92317 9.92121 7.32373 9.89068C7.3238 9.88344 7.31461 9.88344 7.31005 9.88344ZM5.62147 7.03471C6.8234 6.32948 8.0024 5.636 9.19746 4.9355C7.99329 4.23027 6.81653 3.5368 5.62147 2.8363V7.03471Z" fill="#555555"/>
</svg>
