<svg width="112" height="37" viewBox="0 0 112 37" fill="none" xmlns="http://www.w3.org/2000/svg">
<path d="M13.7941 0H14.7901C18.2479 0.0759725 21.6493 1.48146 24.0923 3.96956C23.1902 4.90023 22.2694 5.7929 21.3862 6.72357C20.0143 5.47002 18.3606 4.50137 16.5566 4.15949C13.888 3.5897 11.0128 4.10251 8.77655 5.64096C6.33355 7.25537 4.67983 9.99038 4.32277 12.9153C3.92814 15.8023 4.7362 18.8412 6.59664 21.0824C8.38191 23.2666 11.1068 24.6341 13.9256 24.729C16.5566 24.881 19.3002 24.0643 21.217 22.203C22.7204 20.8924 23.4157 18.8982 23.6412 16.9609C20.5217 16.9609 17.4022 16.9799 14.2827 16.9609V13.0483H27.4185C28.095 17.2458 27.1178 21.975 23.9607 24.976C21.856 27.1032 18.9432 28.3567 15.974 28.6036C13.0988 28.8885 10.1296 28.3377 7.57384 26.9323C4.5107 25.2798 2.0677 22.4879 0.864992 19.202C-0.262545 16.1821 -0.281337 12.7634 0.771031 9.72448C1.72944 6.95148 3.57108 4.50137 5.93891 2.79199C8.21278 1.1016 10.9752 0.170938 13.7941 0Z" fill="#555555"/>
<path d="M89.1516 0.987587H93.1731V28.1097C91.8389 28.1097 90.4858 28.1287 89.1516 28.0907C89.1704 19.069 89.1516 10.0283 89.1516 0.987587Z" fill="#555555"/>
<path d="M36.3631 10.3895C38.8437 9.91471 41.531 10.4465 43.5794 11.947C45.4398 13.2765 46.7365 15.3657 47.1311 17.6449C47.6385 20.2849 46.9996 23.1718 45.3083 25.261C43.4854 27.5972 40.4974 28.8507 37.5846 28.6608C34.9161 28.5088 32.3228 27.1603 30.7442 24.9572C28.9589 22.5261 28.5267 19.1833 29.5039 16.3343C30.4811 13.2765 33.2436 10.9403 36.3631 10.3895ZM36.9269 13.9982C35.9121 14.2641 34.9725 14.8529 34.296 15.6886C32.4731 17.8918 32.5859 21.4814 34.5966 23.5327C35.743 24.7102 37.4719 25.261 39.0692 24.9382C40.5538 24.6723 41.8505 23.6656 42.5646 22.3361C43.8049 20.076 43.4478 16.9611 41.5498 15.1948C40.3283 14.0552 38.543 13.5804 36.9269 13.9982Z" fill="#555555"/>
<path d="M56.2814 10.3895C59.119 9.83867 62.2198 10.6364 64.3433 12.6497C67.8011 15.7835 68.1769 21.6524 65.2265 25.2611C63.4413 27.5403 60.5473 28.7938 57.6908 28.6609C54.9659 28.5849 52.2786 27.2174 50.6625 24.9572C48.8397 22.4691 48.445 19.0503 49.4786 16.1444C50.5122 13.1815 53.2183 10.9213 56.2814 10.3895ZM56.8452 13.9982C55.8304 14.2641 54.8908 14.8529 54.2143 15.6696C52.4102 17.8348 52.4854 21.3675 54.421 23.4378C55.5673 24.6723 57.3526 25.2801 59.0063 24.9382C60.4721 24.6533 61.7876 23.6657 62.5017 22.3362C63.7232 20.057 63.3661 16.9421 61.4493 15.1757C60.2278 14.0362 58.4425 13.5803 56.8452 13.9982Z" fill="#555555"/>
<path d="M73.1778 11.4907C75.3389 10.1232 78.2142 9.74331 80.5444 10.9209C81.2773 11.2438 81.8787 11.7946 82.4612 12.3454C82.48 11.8326 82.4612 11.3007 82.48 10.7689C83.7391 10.7879 84.9982 10.7689 86.2761 10.7879V27.5398C86.2573 30.0659 85.6183 32.7439 83.8143 34.5863C81.8411 36.6185 78.8155 37.2453 76.0906 36.8275C73.1778 36.3906 70.6409 34.2444 69.5133 31.5284C70.6409 30.9776 71.8248 30.5407 72.9899 30.0279C73.6476 31.5854 74.9819 32.9149 76.6544 33.2188C78.3269 33.5227 80.2625 33.1048 81.3525 31.6993C82.5176 30.2558 82.5176 28.2806 82.4612 26.5142C81.5968 27.3689 80.6008 28.1286 79.3981 28.4135C76.786 29.1543 73.9107 28.2426 71.9 26.4572C69.8704 24.6719 68.6677 21.9179 68.7804 19.1829C68.8368 16.087 70.5657 13.1051 73.1778 11.4907ZM77.0678 13.9218C75.9215 14.1117 74.8503 14.7575 74.1174 15.6502C72.351 17.7774 72.351 21.1772 74.1362 23.2664C75.151 24.5009 76.786 25.1847 78.3645 25.0138C79.8491 24.8618 81.2209 23.9122 81.9538 22.6016C83.1941 20.3794 82.9874 17.3595 81.3149 15.4222C80.2813 14.2257 78.6276 13.6369 77.0678 13.9218Z" fill="#555555"/>
<path d="M97.9997 12.4594C100.255 10.3322 103.731 9.61047 106.625 10.7311C109.369 11.7757 111.117 14.4157 112 17.1317C107.922 18.8411 103.863 20.5315 99.785 22.2409C100.349 23.3235 101.213 24.3111 102.378 24.71C104.013 25.2988 105.968 25.0898 107.34 23.9882C107.884 23.5704 108.317 23.0196 108.73 22.4878C109.764 23.1905 110.797 23.8743 111.831 24.577C110.365 26.7992 107.903 28.3567 105.254 28.6036C102.322 28.9644 99.2024 27.8249 97.3044 25.5077C94.1849 21.861 94.4856 15.7452 97.9997 12.4594ZM100.011 15.9732C99.3716 16.9038 99.1085 18.0434 99.1273 19.164C101.852 18.0244 104.577 16.8848 107.302 15.7262C106.851 14.6626 105.761 14.0169 104.652 13.8459C102.867 13.523 101.007 14.4917 100.011 15.9732Z" fill="#555555"/>
</svg>
