<svg width="142" height="35" viewBox="0 0 142 35" fill="none" xmlns="http://www.w3.org/2000/svg">
<path d="M15.2581 0.0370643C13.4202 0.245233 10.6634 1.10993 9.09486 1.97463C4.88042 4.26449 2.02854 7.83539 0.602607 12.5912C0.31742 13.52 -0.0152989 16.05 0.00054487 17.235C0.00054487 18.2758 0.31742 20.8219 0.507545 21.4304C0.602607 21.7186 0.808576 22.4072 0.982857 22.9356C1.26804 23.8324 2.64645 26.6506 2.88411 26.8428C2.93164 26.8908 3.18514 27.2111 3.42279 27.5794C4.00901 28.4601 5.54586 30.0294 6.70245 30.9261C7.5897 31.6147 10.093 33.0718 10.4099 33.0879C10.4891 33.0879 10.5049 32.4794 10.4574 31.6787C10.3465 29.9013 10.6792 27.4833 11.3922 25.0173C11.519 24.601 11.614 24.0565 11.614 23.8163C11.614 23.5761 11.6774 23.3199 11.7566 23.2399C11.8358 23.1438 11.9784 22.6794 12.0576 22.199C12.1527 21.7186 12.3111 20.982 12.422 20.5657C12.5805 19.9412 12.5646 19.701 12.3428 19.0285C12.026 18.0036 12.0101 16.3383 12.327 15.5376C13.0716 13.6321 13.8955 12.9115 15.2898 12.9115C16.9692 12.9115 17.7772 14.1925 17.4604 16.3383C17.3178 17.3151 16.9217 18.8523 16.6682 19.3327C16.6048 19.4768 16.4939 19.8771 16.4464 20.2134C16.383 20.5657 16.2562 21.0621 16.177 21.3343C15.9552 21.9588 16.383 23.1758 16.9534 23.6402C17.492 24.0725 18.617 24.2006 19.6468 23.9605C20.3756 23.8003 20.6766 23.6082 21.4371 22.8716C22.3402 21.9748 23.0215 20.934 23.0215 20.4376C23.0215 20.2935 23.1007 20.1013 23.1958 20.0052C23.6394 19.5569 23.8771 16.0661 23.5444 14.5929C23.18 12.9756 22.055 11.3903 20.5974 10.4615C19.1398 9.51675 16.1295 9.24453 14.2758 9.88505C12.9766 10.3334 11.82 11.086 11.0753 11.9667C10.4099 12.7514 9.71276 14.0324 9.71276 14.4808C9.71276 14.6409 9.63355 14.8491 9.53848 14.9451C9.44342 15.0412 9.33251 15.6497 9.28498 16.3062C9.20576 17.283 9.26914 17.7314 9.55433 18.6922C9.74445 19.3487 10.093 20.1173 10.299 20.4056C10.7268 20.982 10.7268 21.2062 10.3307 22.7435C10.2198 23.1598 10.0296 23.5441 9.91873 23.5922C8.92058 23.9765 6.89258 21.5585 6.2113 19.1566C5.9578 18.2438 5.94195 14.9932 6.19545 14.0324C6.30636 13.6321 6.49648 13.0876 6.62323 12.7994C6.74998 12.5272 6.86089 12.255 6.86089 12.1909C6.86089 12.1269 7.17776 11.5824 7.57386 10.9899C9.63355 7.8514 12.9766 6.18605 17.2069 6.18605C18.1733 6.18605 19.1715 6.2501 19.4408 6.33017C21.6273 7.01872 22.2135 7.2429 23.069 7.75532C24.7326 8.76414 25.9368 10.1413 27.1409 12.4471C27.2201 12.5912 27.331 12.9756 27.3785 13.2958C27.4419 13.6161 27.5528 13.9203 27.632 13.9684C27.7113 14.0164 27.7746 15.0572 27.7746 16.2902C27.7746 18.516 27.6162 19.4128 26.9508 21.2382C26.2061 23.2399 24.289 25.4497 22.5462 26.3144C21.548 26.7948 19.6785 27.3232 18.9338 27.3232C17.9357 27.3232 15.971 26.4905 15.4324 25.818C15.1789 25.5137 14.9412 25.6258 14.9412 26.0582C14.9412 26.2183 14.8778 26.4905 14.7828 26.6506C14.7035 26.7948 14.561 27.2431 14.4817 27.6434C14.0223 29.7572 13.3727 31.4705 12.3745 33.0718C12.0735 33.5682 12.327 33.8565 13.1509 33.9686C13.5628 34.0326 14.1173 34.1447 14.3708 34.2248C15.0046 34.4329 18.4427 34.4009 19.5993 34.1927C20.645 34.0006 22.3402 33.5202 23.1007 33.1999C27.8855 31.2143 31.5138 27.1791 33.0823 22.0389C33.922 19.3007 33.9695 16.1141 33.209 12.9115C32.9555 11.8707 32.8763 11.6305 32.195 10.0292C31.2127 7.69127 28.9946 4.95305 26.7448 3.27169C24.8119 1.83052 22.9106 0.997843 19.9478 0.277259C19.124 0.0851033 16.1929 -0.0750265 15.2581 0.0370643ZM57.5134 5.81775C56.8955 5.91383 55.9131 6.93866 55.6596 7.73931C55.3903 8.62002 55.6596 9.56479 56.4201 10.3014C58.0996 11.9507 61.0148 10.3975 60.6504 8.02754C60.4286 6.52232 59.0661 5.56154 57.5134 5.81775ZM40.2437 6.76252C40.1011 6.92265 40.1011 26.2343 40.2595 26.4585C40.3387 26.5866 41.02 26.6346 42.3509 26.6186L44.3314 26.6026L44.4106 23.352C44.474 20.7098 44.5373 20.0693 44.7275 19.9572C44.8542 19.8771 45.9316 19.7971 47.1199 19.7971C49.7182 19.7971 50.8115 19.6049 51.9997 18.9644C53.5524 18.1157 54.4555 16.8987 54.9467 14.9612C55.2477 13.7442 55.2477 12.8635 54.9308 11.6144C54.6456 10.4935 54.5189 10.2213 53.8376 9.30858C52.9979 8.17166 52.1423 7.54715 50.7481 7.05075C49.9717 6.79454 49.3221 6.7465 45.1235 6.69846C42.5093 6.66644 40.307 6.69846 40.2437 6.76252ZM48.9419 10.7497C50.0034 11.086 50.5263 11.5664 50.7639 12.4311C51.065 13.568 50.8431 14.6249 50.1777 15.2654C49.4489 15.954 48.7993 16.1141 46.6762 16.1141C45.282 16.1141 44.8542 16.0661 44.6641 15.8579C44.4581 15.6657 44.4106 15.2014 44.4106 13.3759C44.4106 10.4935 44.3947 10.5096 46.597 10.5096C47.5476 10.5096 48.4666 10.6056 48.9419 10.7497ZM76.7318 9.80498C76.7318 10.9099 76.6526 11.9507 76.5734 12.1269C76.4625 12.335 76.2407 12.4311 75.8604 12.4311C75.5752 12.4311 75.3059 12.4952 75.2742 12.5912C75.2584 12.6713 75.2584 13.2318 75.3059 13.8242C75.3851 14.8811 75.401 14.8971 75.8763 15.0092C76.1456 15.0572 76.4466 15.1533 76.5417 15.2174C76.6843 15.2974 76.7318 16.5625 76.7318 19.7651C76.7318 24.0725 76.7477 24.2327 77.0962 24.8732C77.825 26.2343 78.9658 26.7147 81.279 26.6506L82.8317 26.6026L82.8792 25.0493L82.9267 23.4801H82.5306C81.9286 23.4801 81.0413 22.9997 80.9463 22.6154C80.8987 22.4232 80.8512 20.7258 80.8512 18.8203C80.8512 16.1942 80.8987 15.3134 81.0572 15.1853C81.1681 15.0893 81.6117 14.9932 82.0395 14.9612L82.8317 14.9131V12.5112L81.9603 12.4631C81.485 12.4311 81.0413 12.319 80.9779 12.2229C80.9146 12.1108 80.8512 11.07 80.8512 9.90106V7.78735H76.7318V9.80498ZM135.623 7.88342C135.56 7.94748 135.512 8.95629 135.512 10.1252C135.512 12.3991 135.496 12.4311 134.625 12.4311C134.229 12.4311 134.229 12.4471 134.276 13.6641C134.324 14.8811 134.34 14.9131 134.752 14.9612C134.973 14.9932 135.243 15.1053 135.322 15.2014C135.417 15.3134 135.512 17.251 135.56 19.717C135.607 22.0869 135.686 24.2487 135.75 24.5049C135.94 25.2095 136.922 26.1062 137.857 26.4104C138.903 26.7627 141.564 26.7948 141.834 26.4585C141.961 26.3144 142.008 25.7379 141.976 24.9052L141.929 23.5601L141.374 23.4641C140.772 23.368 140.091 23.0477 139.917 22.7755C139.853 22.6794 139.79 20.934 139.79 18.9004C139.79 14.721 139.695 14.9932 141.073 14.9932C141.976 14.9932 142.056 14.8331 141.976 13.3759L141.929 12.5112L140.899 12.4311L139.869 12.351L139.79 10.1092L139.711 7.86741L137.714 7.81937C136.621 7.80336 135.686 7.83539 135.623 7.88342ZM68.8892 12.0468C68.1128 12.255 67.2097 12.7834 66.6077 13.4079C65.8789 14.1765 65.6887 14.1285 65.6095 13.1517L65.562 12.5112H61.601V26.6026L63.5974 26.6346C65.562 26.6827 65.6095 26.6666 65.7046 26.3144C65.7521 26.1222 65.7996 24.0886 65.7996 21.7827C65.7996 17.219 65.8155 17.0909 66.7503 16.1942C67.1622 15.7938 67.384 15.7138 68.2713 15.6657L69.3011 15.6017L69.919 16.2582C70.6478 17.0268 70.5686 16.2902 70.632 22.9196C70.6478 24.681 70.6637 26.2343 70.6795 26.3944C70.7112 26.6186 70.9647 26.6506 72.7392 26.6186L74.7514 26.6026V15.3615L74.2919 14.4487C73.4997 12.8635 72.2797 12.1109 70.4102 12.0148C69.7447 11.9988 69.0635 11.9988 68.8892 12.0468ZM88.6939 12.0468C86.9827 12.5112 86.1589 12.9756 85.0973 14.0324C83.6714 15.4896 83.0218 17.187 83.0218 19.4768C83.0376 23.4961 85.5251 26.4745 89.2009 26.8268C92.3379 27.131 94.762 26.2023 96.3147 24.1046C96.5365 23.8003 97.0118 22.8235 97.0118 22.6474C97.0118 22.5833 96.0929 22.5193 94.9838 22.5193H92.9558L92.4805 23.0157C91.926 23.5922 91.1496 23.9605 90.4367 23.9605C89.7237 23.9605 88.6305 23.448 88.1235 22.9036C87.7432 22.4712 87.1887 21.2222 87.1887 20.7899C87.1887 20.6458 88.3453 20.5977 92.0686 20.5977C94.7462 20.5977 97.0118 20.5337 97.1227 20.4696C97.3604 20.3095 97.1386 17.7634 96.79 16.8347C96.0771 14.8971 94.7303 13.2638 93.3678 12.6873C92.9717 12.5272 92.5122 12.319 92.3538 12.239C92.021 12.0628 89.2009 11.9187 88.6939 12.0468ZM91.7834 15.5536C92.4013 15.986 92.94 17.0108 92.8608 17.5873C92.8132 17.9556 92.7816 17.9556 90.104 18.0036C87.0144 18.0517 86.9986 18.0357 87.4897 16.8827C87.8383 16.0821 88.5354 15.3615 89.185 15.1533C89.9297 14.9131 91.1338 15.1053 91.7834 15.5536ZM112.143 12.0468C110.305 12.5432 109.021 13.3599 108.023 14.6249C107.627 15.1373 107.31 15.6177 107.31 15.7138C107.31 15.7938 107.199 16.0821 107.057 16.3543C106.914 16.6105 106.708 17.4111 106.597 18.1317C106.043 21.5585 107.564 24.7611 110.416 26.2023L111.509 26.7627H113.806C116.183 26.7627 116.389 26.7147 117.846 25.9301C118.908 25.3536 120.651 23.1118 120.381 22.6634C120.318 22.5833 119.415 22.5193 118.353 22.5193H116.405L116.008 22.9837C114.424 24.7931 111.461 23.8644 110.828 21.3503C110.733 21.0141 110.733 20.7258 110.812 20.6618C110.891 20.6137 113.157 20.5817 115.866 20.5977C119.732 20.5977 120.777 20.5657 120.793 20.4056C120.936 18.4039 119.985 15.4416 118.797 14.1605C118.132 13.4399 116.975 12.6393 116.405 12.4952C116.151 12.4311 115.866 12.319 115.755 12.239C115.533 12.0628 112.634 11.9187 112.143 12.0468ZM114.614 15.1693C115.327 15.4255 116.151 16.3223 116.278 17.0108C116.468 18.0517 116.484 18.0517 113.537 18.0036C110.891 17.9556 110.875 17.9556 110.828 17.5873C110.764 17.1389 111.319 16.034 111.794 15.6177C112.475 15.0412 113.664 14.8491 114.614 15.1693ZM125.927 12.0468C122.679 12.8314 121.506 14.0004 121.49 16.4344C121.49 19.0605 122.79 20.1654 126.64 20.8539C129.286 21.3183 130.046 21.7347 130.014 22.7435C129.999 23.4641 129.507 23.9284 128.525 24.1366C127.289 24.4088 126.323 24.1046 125.546 23.2239L124.929 22.5193H123.011C121.459 22.5193 121.094 22.5673 121.094 22.7435C121.094 23.2078 121.728 24.4248 122.251 25.0333C122.742 25.5618 123.122 25.818 124.612 26.5385C124.754 26.6186 125.531 26.7467 126.307 26.8428C127.749 27.0189 130.252 26.8588 130.886 26.5385C131.028 26.4745 131.44 26.2663 131.789 26.1062C132.692 25.6738 133.548 24.6971 133.864 23.7683C134.213 22.7114 134.118 21.2382 133.627 20.2134C133.041 19.0124 131.488 18.1477 129.175 17.7314C126.196 17.203 126.148 17.187 125.673 16.7226C125.103 16.1301 125.103 15.9219 125.673 15.2814C126.133 14.769 126.164 14.753 127.432 14.753C128.699 14.753 128.731 14.769 129.19 15.2814C129.444 15.5697 129.65 15.9059 129.65 16.034C129.65 16.2262 129.983 16.2742 131.63 16.2742C133.817 16.2742 133.753 16.3223 133.373 15.1853C132.676 13.1677 130.886 12.1429 127.907 12.0308C126.988 11.9988 126.101 11.9988 125.927 12.0468ZM104.854 12.3831C104.157 12.6233 103.191 13.4239 102.89 14.0004C102.589 14.5768 102.319 14.3367 102.24 13.3759L102.161 12.5112H98.2001L98.1526 19.2366C98.1367 22.9356 98.1526 26.1222 98.2001 26.3304C98.2793 26.6827 98.3269 26.6827 100.228 26.6506C101.321 26.6346 102.209 26.5385 102.272 26.4425C102.335 26.3624 102.399 24.665 102.399 22.6794C102.399 19.5409 102.43 18.9804 102.7 18.2758C103.254 16.8187 104.443 15.954 105.932 15.954C106.344 15.954 106.518 15.8739 106.566 15.6657C106.677 15.2014 106.692 13.0396 106.597 12.5592C106.502 12.1749 106.423 12.1108 105.995 12.1269C105.71 12.1429 105.203 12.255 104.854 12.3831ZM56.0557 12.6233C56.0082 12.7354 55.9924 15.8899 56.0082 19.6369L56.0557 26.4425L57.9411 26.5225C59.0819 26.5706 59.9058 26.5385 60.0325 26.4425C60.2068 26.3144 60.2543 24.9533 60.2543 19.5088C60.2702 15.7938 60.2226 12.6713 60.1751 12.5912C60.0167 12.351 56.135 12.3831 56.0557 12.6233Z" fill="#555555"/>
</svg>
